<svg xmlns="http://www.w3.org/2000/svg" width="39" height="39" viewBox="0 0 39 39">
  <g id="Group_12798" data-name="Group 12798" transform="translate(-1379 -584)">
    <rect id="Rectangle_3998" data-name="Rectangle 3998" width="39" height="39" rx="10" transform="translate(1379 584)" fill="#e19411" opacity="0.1"/>
    <g id="Group_9602" data-name="Group 9602" transform="translate(1378.511 584.371)">
      <rect id="Rectangle_2636" data-name="Rectangle 2636" width="39" height="39" transform="translate(0.489 -0.371)" fill="none"/>
      <g id="exchange" transform="translate(7.518 7.518)">
        <path id="Path_8299" data-name="Path 8299" d="M24.906,5.9,15.107.561a.5.5,0,0,0-.473,0L10.941,2.573a.494.494,0,0,0-.211.115L4.835,5.9a.487.487,0,0,0-.255.427V12.78a6.515,6.515,0,0,0-2.663,1.6A6.448,6.448,0,0,0,.664,21.818a.493.493,0,0,0,.657.224.486.486,0,0,0,.226-.652,5.479,5.479,0,0,1,1.065-6.316,5.588,5.588,0,0,1,7.857,0,5.479,5.479,0,0,1,0,7.793A5.591,5.591,0,0,1,4.1,23.923a.493.493,0,0,0-.657.224.485.485,0,0,0,.226.652,6.58,6.58,0,0,0,7.495-1.243,6.483,6.483,0,0,0,1.353-1.946l2.118,1.153a.495.495,0,0,0,.473,0l9.8-5.337A.487.487,0,0,0,25.161,17V13.612a.491.491,0,0,0-.983,0v3.1l-8.815,4.8V11.95l2.909-1.584v2.512a.486.486,0,0,0,.241.42A.5.5,0,0,0,19,13.3l2.1-1.146a.486.486,0,0,0,.254-.427V8.687l2.823-1.537V9.713a.491.491,0,0,0,.983,0V6.325A.487.487,0,0,0,24.906,5.9ZM14.871,1.544l8.778,4.781L20.88,7.834,12.1,3.052Zm0,9.562L6.092,6.325,8.963,4.762l8.778,4.781Zm3.892-2.12L9.984,4.206l1.1-.6L19.859,8.39Zm-7.6,5.4a6.523,6.523,0,0,0-4.624-1.9,6.682,6.682,0,0,0-.977.072V7.149l8.818,4.8v9.562L12.85,20.68a6.463,6.463,0,0,0-1.686-6.3Zm9.209-2.941-1.117.61V9.83l1.117-.608Zm0,0" transform="translate(0 -0.501)" fill="#e19411"/>
        <path id="Path_8300" data-name="Path 8300" d="M492.473,219.441a.473.473,0,1,0,.335.139A.477.477,0,0,0,492.473,219.441Zm0,0" transform="translate(-467.786 -208.757)" fill="#e19411"/>
        <path id="Path_8301" data-name="Path 8301" d="M67.069,324.639a.473.473,0,0,0,.335-.808l-.328-.328h2.8a1.231,1.231,0,1,1,0,2.461H68.216a.473.473,0,1,0,0,.946h1.658a2.177,2.177,0,1,0,0-4.354h-2.8l.328-.328a.473.473,0,0,0-.669-.67L65.6,322.7a.474.474,0,0,0,0,.669l1.136,1.136A.472.472,0,0,0,67.069,324.639Zm0,0" transform="translate(-62.362 -305.509)" fill="#e19411"/>
        <path id="Path_8302" data-name="Path 8302" d="M36.542,457.379a.471.471,0,0,1-.362-.168h0a.472.472,0,1,1,.363.17Zm0,0" transform="translate(-34.361 -434.13)" fill="#e19411"/>
      </g>
    </g>
  </g>
</svg>
