<svg xmlns="http://www.w3.org/2000/svg" width="17.764" height="13.902" viewBox="0 0 17.764 13.902">
  <g id="free" transform="translate(0 -53.333)">
    <g id="Group_9605" data-name="Group 9605" transform="translate(1.545 60.284)">
      <g id="Group_9604" data-name="Group 9604" transform="translate(0 0)">
        <path id="Path_8303" data-name="Path 8303" d="M45.369,245.333H43.052a.386.386,0,0,0-.386.386v4.634a.386.386,0,0,0,.772,0v-4.248h1.931a.386.386,0,1,0,0-.772Z" transform="translate(-42.666 -245.333)" fill="#40a435"/>
      </g>
    </g>
    <g id="Group_9607" data-name="Group 9607" transform="translate(1.545 62.601)">
      <g id="Group_9606" data-name="Group 9606" transform="translate(0 0)">
        <path id="Path_8304" data-name="Path 8304" d="M44.6,309.333H43.052a.386.386,0,0,0,0,.772H44.6a.386.386,0,0,0,0-.772Z" transform="translate(-42.666 -309.333)" fill="#40a435"/>
      </g>
    </g>
    <g id="Group_9609" data-name="Group 9609" transform="translate(5.406 60.284)">
      <g id="Group_9608" data-name="Group 9608" transform="translate(0 0)">
        <path id="Path_8305" data-name="Path 8305" d="M150.651,248.422h.226a1.545,1.545,0,1,0,0-3.089h-1.159a.386.386,0,0,0-.386.386v4.634a.386.386,0,1,0,.772,0v-1.385l1.657,1.658a.388.388,0,0,0,.273.113.382.382,0,0,0,.273-.114.386.386,0,0,0,0-.546Zm-.546-2.317h.772a.772.772,0,1,1,0,1.545h-.772Z" transform="translate(-149.333 -245.333)" fill="#40a435"/>
      </g>
    </g>
    <g id="Group_9611" data-name="Group 9611" transform="translate(9.268 60.284)">
      <g id="Group_9610" data-name="Group 9610" transform="translate(0 0)">
        <path id="Path_8306" data-name="Path 8306" d="M258.7,249.967h-1.931v-3.862H258.7a.386.386,0,1,0,0-.772h-2.317a.386.386,0,0,0-.386.386v4.634a.386.386,0,0,0,.386.386H258.7a.386.386,0,0,0,0-.772Z" transform="translate(-256 -245.333)" fill="#40a435"/>
      </g>
    </g>
    <g id="Group_9613" data-name="Group 9613" transform="translate(9.268 62.601)">
      <g id="Group_9612" data-name="Group 9612" transform="translate(0 0)">
        <path id="Path_8307" data-name="Path 8307" d="M257.93,309.333h-1.545a.386.386,0,0,0,0,.772h1.545a.386.386,0,1,0,0-.772Z" transform="translate(-255.999 -309.333)" fill="#40a435"/>
      </g>
    </g>
    <g id="Group_9615" data-name="Group 9615" transform="translate(13.13 60.284)">
      <g id="Group_9614" data-name="Group 9614" transform="translate(0 0)">
        <path id="Path_8308" data-name="Path 8308" d="M365.369,249.967h-1.931v-3.862h1.931a.386.386,0,1,0,0-.772h-2.317a.386.386,0,0,0-.386.386v4.634a.386.386,0,0,0,.386.386h2.317a.386.386,0,0,0,0-.772Z" transform="translate(-362.666 -245.333)" fill="#40a435"/>
      </g>
    </g>
    <g id="Group_9617" data-name="Group 9617" transform="translate(13.13 62.601)">
      <g id="Group_9616" data-name="Group 9616" transform="translate(0 0)">
        <path id="Path_8309" data-name="Path 8309" d="M364.6,309.333h-1.545a.386.386,0,0,0,0,.772H364.6a.386.386,0,1,0,0-.772Z" transform="translate(-362.666 -309.333)" fill="#40a435"/>
      </g>
    </g>
    <g id="Group_9619" data-name="Group 9619" transform="translate(0 58.74)">
      <g id="Group_9618" data-name="Group 9618">
        <path id="Path_8310" data-name="Path 8310" d="M15.833,202.667H1.931A1.933,1.933,0,0,0,0,204.6v4.634a1.933,1.933,0,0,0,1.931,1.931h13.9a1.933,1.933,0,0,0,1.931-1.931V204.6A1.933,1.933,0,0,0,15.833,202.667Zm1.159,6.565a1.16,1.16,0,0,1-1.159,1.159H1.931a1.16,1.16,0,0,1-1.159-1.159V204.6a1.16,1.16,0,0,1,1.159-1.159h13.9a1.16,1.16,0,0,1,1.159,1.159Z" transform="translate(0 -202.667)" fill="#40a435"/>
      </g>
    </g>
    <g id="Group_9621" data-name="Group 9621" transform="translate(6.951 53.333)">
      <g id="Group_9620" data-name="Group 9620" transform="translate(0 0)">
        <path id="Path_8311" data-name="Path 8311" d="M193.931,53.333a1.931,1.931,0,1,0,1.931,1.931A1.933,1.933,0,0,0,193.931,53.333Zm0,3.089a1.159,1.159,0,1,1,1.159-1.159A1.16,1.16,0,0,1,193.931,56.422Z" transform="translate(-192 -53.333)" fill="#40a435"/>
      </g>
    </g>
    <g id="Group_9623" data-name="Group 9623" transform="translate(3.089 54.878)">
      <g id="Group_9622" data-name="Group 9622" transform="translate(0 0)">
        <path id="Path_8312" data-name="Path 8312" d="M89.849,96.129a.386.386,0,0,0-.546,0l-3.862,3.862a.386.386,0,0,0,.546.546l3.862-3.862A.386.386,0,0,0,89.849,96.129Z" transform="translate(-85.328 -96.016)" fill="#40a435"/>
      </g>
    </g>
    <g id="Group_9625" data-name="Group 9625" transform="translate(10.04 54.878)">
      <g id="Group_9624" data-name="Group 9624" transform="translate(0 0)">
        <path id="Path_8313" data-name="Path 8313" d="M281.849,99.991l-3.862-3.862a.386.386,0,0,0-.546.546l3.862,3.862a.386.386,0,1,0,.546-.546Z" transform="translate(-277.328 -96.016)" fill="#40a435"/>
      </g>
    </g>
  </g>
</svg>
