<svg id="odiggo_logo_Ai-02" data-name="odiggo logo Ai-02" xmlns="http://www.w3.org/2000/svg" width="120" height="46.827" viewBox="0 0 120 46.827">
  <path id="Path_108" data-name="Path 108" d="M385.408,365.96c-.483-.1-.97-.182-1.449-.3a6.886,6.886,0,0,1-5.38-6.81c0-.3,0-.6.012-.9a.819.819,0,0,1,.838-.868q2.716-.021,5.429,0a.835.835,0,0,1,.835.8c.016.149.009.3.035.448a1.875,1.875,0,0,0,2.86,1.283,2.465,2.465,0,0,0,1.428-1.939c.289-1.808.53-3.626.786-5.441a1.257,1.257,0,0,0-.009-.187c-.45.387-.868.735-1.314,1.05a5.7,5.7,0,0,1-4.167.912c-2.727-.331-4.223-2.1-4.769-4.739a16.951,16.951,0,0,1-.133-4.846,66.664,66.664,0,0,1,1.332-9.057,15.436,15.436,0,0,1,2.081-5.369,7.294,7.294,0,0,1,6.971-3.448,4.633,4.633,0,0,1,3.04,1.442c.189.189.392.366.614.574.037-.266.072-.509.1-.751a.86.86,0,0,1,.94-.856q2.453-.011,4.906,0c.628,0,.971.438.877,1.113-.154,1.124-.322,2.244-.481,3.369q-.581,4.129-1.157,8.259-.542,3.87-1.094,7.739c-.387,2.753-.789,5.5-1.148,8.259a13.147,13.147,0,0,1-1.841,5.667,9.819,9.819,0,0,1-7.44,4.517c-.082.009-.18-.028-.236.07Zm7.79-30.809c0-1.325-.49-2-1.421-2.179a2.391,2.391,0,0,0-2.557,1.4,8.387,8.387,0,0,0-.53,1.71,57.077,57.077,0,0,0-1.244,9.064,3.5,3.5,0,0,0,.215,1.766,2,2,0,0,0,3.14.422,3.193,3.193,0,0,0,.971-2.011q.521-3.647,1.034-7.293C392.954,337,393.089,335.959,393.2,335.151Z" transform="translate(-301.35 -319.133)" fill="#e41022"/>
  <path id="Path_109" data-name="Path 109" d="M287.791,365.942c-.632-.168-1.288-.224-1.918-.422a6.907,6.907,0,0,1-4.909-6.5c-.009-.362,0-.723.012-1.085a.826.826,0,0,1,.842-.868q2.716-.021,5.429,0a.835.835,0,0,1,.831.807c.145,1.274.511,1.778,1.4,1.918a2.465,2.465,0,0,0,2.669-1.355,7.972,7.972,0,0,0,.495-2.294c.194-1.281.362-2.566.539-3.852a1.446,1.446,0,0,0,0-.2c-.173.009-.247.154-.348.245a5.98,5.98,0,0,1-3.766,1.712c-3.243.147-5.329-1.4-6.068-4.463a13.916,13.916,0,0,1-.271-4.018,64.83,64.83,0,0,1,1.321-9.848,16.248,16.248,0,0,1,2.018-5.513,7.361,7.361,0,0,1,4.993-3.556,7.58,7.58,0,0,1,2.753-.016,4.972,4.972,0,0,1,2.622,1.563c.114.114.222.233.382.406.044-.3.082-.551.117-.8a.874.874,0,0,1,.982-.854q2.415-.007,4.829,0a.848.848,0,0,1,.915,1.043c-.114.952-.264,1.9-.4,2.851q-.546,3.871-1.09,7.739t-1.085,7.739c-.338,2.408-.663,4.816-1.02,7.221a40.05,40.05,0,0,1-.817,4.9,10.019,10.019,0,0,1-8.8,7.433c-.07.007-.154-.019-.2.068Q289.026,365.944,287.791,365.942Zm2.069-21.178c-.009.112-.028.224-.028.334a3.923,3.923,0,0,0,.219,1.8,1.992,1.992,0,0,0,3.14.415,3.209,3.209,0,0,0,.968-2.011c.4-2.788.8-5.576,1.178-8.369a14.28,14.28,0,0,0,.245-2.228,1.768,1.768,0,0,0-2.17-1.764,2.548,2.548,0,0,0-1.248.637,3.421,3.421,0,0,0-.922,1.843A54.14,54.14,0,0,0,289.861,344.765Z" transform="translate(-226.743 -319.115)" fill="#e41022"/>
  <path id="Path_110" data-name="Path 110" d="M151.489,332.364a7.338,7.338,0,0,1-3.082,2.041,6.078,6.078,0,0,1-6.383-1.36,4.775,4.775,0,0,1-1.29-2.921,21.926,21.926,0,0,1,.023-5.966c.343-2.758.742-5.509,1.167-8.257a20.786,20.786,0,0,1,2.16-6.995,7.2,7.2,0,0,1,7.76-3.46,4.8,4.8,0,0,1,2.578,1.631c.072.082.147.161.266.294.1-.656.184-1.253.268-1.853q.574-4.091,1.143-8.185a.88.88,0,0,1,1.017-.858q2.527,0,5.056,0c.7,0,1.048.369.957,1.064-.25,1.89-.518,3.78-.784,5.667q-.542,3.85-1.087,7.7-.623,4.424-1.244,8.849-.619,4.406-1.237,8.814c-.231,1.643-.457,3.285-.693,4.925a.859.859,0,0,1-.931.833q-2.436.017-4.869,0a.861.861,0,0,1-.922-1.045C151.393,333.02,151.438,332.749,151.489,332.364Zm-3.7-7.107c0,.336-.007.6,0,.859s.03.523.061.784a1.64,1.64,0,0,0,1.2,1.391,2.23,2.23,0,0,0,2.151-.546,3.22,3.22,0,0,0,.924-2.032q.357-2.537.712-5.075c.308-2.186.625-4.368.917-6.556a2.228,2.228,0,0,0-.308-1.654,2.054,2.054,0,0,0-3.019-.152,3.208,3.208,0,0,0-.924,1.717A72.089,72.089,0,0,0,147.784,325.258Z" transform="translate(-119.425 -296.476)" fill="#e41022"/>
  <g id="Group_73" data-name="Group 73" transform="translate(42.937 0.002)">
    <path id="Path_111" data-name="Path 111" d="M236.792,368.39c-.824,0-1.647,0-2.471,0-.779,0-1.113-.406-1.005-1.167q.735-5.221,1.463-10.443.805-5.722,1.617-11.441.245-1.739.478-3.481c.1-.716.373-.968,1.111-.968h4.9c.8,0,1.131.362,1.022,1.143q-.658,4.742-1.33,9.479-.616,4.389-1.227,8.777-.511,3.629-1.031,7.256a.867.867,0,0,1-.989.845C238.488,368.4,237.639,368.39,236.792,368.39Z" transform="translate(-233.296 -330.53)" fill="#e41022"/>
    <path id="Path_112" data-name="Path 112" d="M254.757,296.487c.924,0,1.848,0,2.772,0a.824.824,0,0,1,.908,1c-.226,1.731-.476,3.458-.716,5.186-.03.222-.056.446-.1.665a.808.808,0,0,1-.84.7q-2.866.01-5.73,0c-.6,0-.938-.436-.852-1.1.149-1.136.317-2.272.478-3.406.1-.74.208-1.481.32-2.221a.835.835,0,0,1,.954-.826Q253.355,296.485,254.757,296.487Z" transform="translate(-246.243 -296.486)" fill="#e41022"/>
  </g>
  <path id="Path_113" data-name="Path 113" d="M495.528,339.746a5.79,5.79,0,0,0-3.929-4.823,10.2,10.2,0,0,0-3.553-.633h-1.458a6.228,6.228,0,0,0-1.747.227c-4.4,1.281-6.575,6.51-6.575,6.51h0a1.036,1.036,0,0,1-.035.142c-.24.752-.506,1.5-.7,2.262a56.633,56.633,0,0,0-1.423,8.477,27.07,27.07,0,0,0,.012,6.617,5.936,5.936,0,0,0,4.251,5.156,11.629,11.629,0,0,0,5.66.3,8.628,8.628,0,0,0,6.729-4.964,22.093,22.093,0,0,0,1.491-4.355,56.7,56.7,0,0,0,1.4-9.049A24.765,24.765,0,0,0,495.528,339.746Zm-7.436,6.113c-.3,2.685-.653,5.364-1.183,8.016a12.046,12.046,0,0,1-.651,2.366,2.244,2.244,0,0,1-2.653,1.312,1.523,1.523,0,0,1-1.183-1.352,8.54,8.54,0,0,1-.044-1.4,85.477,85.477,0,0,1,1.465-10.725,9.789,9.789,0,0,1,.534-1.889,2.263,2.263,0,0,1,2.685-1.324,1.622,1.622,0,0,1,1.2,1.636A21.6,21.6,0,0,1,488.092,345.859Z" transform="translate(-375.766 -325.467)" fill="#e41022"/>
  <path id="Path_114" data-name="Path 114" d="M70.588,339.746a5.79,5.79,0,0,0-3.929-4.823,10.2,10.2,0,0,0-3.553-.633H61.648a6.228,6.228,0,0,0-1.747.227c-4.4,1.281-6.575,6.51-6.575,6.51h0a1.045,1.045,0,0,1-.035.142c-.24.752-.506,1.5-.7,2.262a56.64,56.64,0,0,0-1.423,8.477,27.064,27.064,0,0,0,.012,6.617,5.936,5.936,0,0,0,4.251,5.156,11.629,11.629,0,0,0,5.66.3,8.629,8.629,0,0,0,6.729-4.964,22.083,22.083,0,0,0,1.491-4.355,56.7,56.7,0,0,0,1.4-9.049A24.768,24.768,0,0,0,70.588,339.746Zm-7.436,6.113c-.3,2.685-.653,5.364-1.183,8.016a12.045,12.045,0,0,1-.651,2.366,2.244,2.244,0,0,1-2.653,1.312,1.523,1.523,0,0,1-1.183-1.352,8.516,8.516,0,0,1-.044-1.4A85.475,85.475,0,0,1,58.9,344.074a9.786,9.786,0,0,1,.534-1.889,2.263,2.263,0,0,1,2.685-1.324,1.622,1.622,0,0,1,1.2,1.636A21.608,21.608,0,0,1,63.152,345.859Z" transform="translate(-50.969 -325.467)" fill="#e41022"/>
</svg>
