<svg xmlns="http://www.w3.org/2000/svg" width="39" height="39" viewBox="0 0 39 39">
  <g id="Group_12800" data-name="Group 12800" transform="translate(-1379 -674)">
    <rect id="Rectangle_4000" data-name="Rectangle 4000" width="39" height="39" rx="10" transform="translate(1379 674)" fill="#33a878" opacity="0.1"/>
    <g id="Group_12797" data-name="Group 12797" transform="translate(1378.511 674.07)">
      <rect id="Rectangle_2638" data-name="Rectangle 2638" width="39" height="39" transform="translate(0.489 -0.07)" fill="none"/>
      <g id="protection" transform="translate(-27.067 5.142)">
        <path id="Path_20230" data-name="Path 20230" d="M56.884,6.552A6.558,6.558,0,0,1,52.8,2.5a.644.644,0,0,0-.608-.436H41.921a.644.644,0,0,0-.608.436,6.558,6.558,0,0,1-4.085,4.051.644.644,0,0,0-.439.609v4.868a15.085,15.085,0,0,0,3.043,9.125,15.643,15.643,0,0,0,7,5.214.645.645,0,0,0,.447,0,15.563,15.563,0,0,0,6.23-4.27.419.419,0,0,0-.628-.555,14.724,14.724,0,0,1-5.826,4.014A14.8,14.8,0,0,1,40.5,20.651a14.253,14.253,0,0,1-2.875-8.622V7.3a7.406,7.406,0,0,0,4.433-4.4h9.993a7.406,7.406,0,0,0,4.433,4.4v4.729a14.283,14.283,0,0,1-2.42,7.98.419.419,0,1,0,.7.467,15.118,15.118,0,0,0,2.562-8.447V7.161a.644.644,0,0,0-.439-.609ZM45.8,16.894a1.257,1.257,0,1,0,2.514,0V15.8a1.5,1.5,0,0,0,.251-.834,1.515,1.515,0,0,0-.473-1.1,1.5,1.5,0,0,0-1.124-.409A1.508,1.508,0,0,0,45.8,15.8Zm.589-1.994a.671.671,0,0,1,.628-.608h.04a.67.67,0,0,1,.541,1.067.63.63,0,0,0-.122.376v1.16a.419.419,0,0,1-.838,0v-1.16a.63.63,0,0,0-.122-.376.663.663,0,0,1-.127-.457ZM58.525,4.807A4.443,4.443,0,0,1,54.558.878.976.976,0,0,0,53.586,0H40.526a.976.976,0,0,0-.972.878,4.443,4.443,0,0,1-3.967,3.93.975.975,0,0,0-.879.972v6.249a17.13,17.13,0,0,0,3.4,10.286,17.525,17.525,0,0,0,8.646,6.213.981.981,0,0,0,.6,0A17.525,17.525,0,0,0,56,22.315a17.13,17.13,0,0,0,3.4-10.286V5.78a.975.975,0,0,0-.879-.972Zm.041,7.222a16.3,16.3,0,0,1-3.236,9.786A16.579,16.579,0,0,1,47.1,27.731a.137.137,0,0,1-.084,0,16.579,16.579,0,0,1-8.232-5.916,16.3,16.3,0,0,1-3.236-9.786V5.78a.139.139,0,0,1,.126-.138A5.284,5.284,0,0,0,40.387.964a.14.14,0,0,1,.138-.126h13.06a.14.14,0,0,1,.138.126A5.284,5.284,0,0,0,58.44,5.641a.139.139,0,0,1,.126.138ZM43.658,7.085a.419.419,0,1,0-.709-.446,4.83,4.83,0,0,0-.742,2.575v2.33a2.1,2.1,0,0,0-1.073,1.828v4.86a2.1,2.1,0,0,0,2.095,2.095h7.654a2.1,2.1,0,0,0,2.095-2.095v-4.86A2.1,2.1,0,0,0,51.9,11.544V9.214a4.847,4.847,0,0,0-7.448-4.092.419.419,0,0,0,.45.707,4.009,4.009,0,0,1,6.159,3.385v2.072c-.061-.005-.122-.009-.184-.009h-.654V9.214a3.173,3.173,0,1,0-6.345,0v2.063h-.654c-.062,0-.123,0-.184.009V9.214a3.994,3.994,0,0,1,.613-2.129Zm1.063,2.129a2.335,2.335,0,1,1,4.669,0v2.063H44.721Zm-1.492,2.9h7.654a1.258,1.258,0,0,1,1.257,1.257v4.86a1.258,1.258,0,0,1-1.257,1.257H43.229a1.258,1.258,0,0,1-1.257-1.257v-4.86A1.258,1.258,0,0,1,43.229,12.115Z" fill="#33a878"/>
      </g>
    </g>
  </g>
</svg>
