<svg xmlns="http://www.w3.org/2000/svg" width="35.559" height="35.559" viewBox="0 0 35.559 35.559">
  <g id="Group_11450" data-name="Group 11450" transform="translate(1.5 1.5)">
    <g id="Group_11449" data-name="Group 11449" transform="translate(11.025 11.025)">
      <ellipse id="Ellipse_11023" data-name="Ellipse 11023" cx="5.255" cy="5.255" rx="5.255" ry="5.255" fill="none" stroke="#5da145" stroke-linecap="round" stroke-linejoin="round" stroke-miterlimit="10" stroke-width="3"/>
    </g>
    <path id="Path_19758" data-name="Path 19758" d="M32.559,19.345V13.214H27.63a11.315,11.315,0,0,0-1.157-2.795l3.482-3.482L25.622,2.6,22.14,6.087A12.086,12.086,0,0,0,19.346,4.92V0H13.213V4.92a11.7,11.7,0,0,0-2.795,1.167L6.937,2.6,2.6,6.937l3.482,3.482a12.065,12.065,0,0,0-1.158,2.795H0v6.132H4.929A11.318,11.318,0,0,0,6.087,22.14L2.6,25.622l4.332,4.332,3.482-3.482a12.078,12.078,0,0,0,2.795,1.167v4.92h6.132v-4.92a11.7,11.7,0,0,0,2.795-1.167l3.482,3.482,4.332-4.332L26.472,22.14a12.062,12.062,0,0,0,1.157-2.795Z" fill="none" stroke="#5da145" stroke-linecap="round" stroke-linejoin="round" stroke-miterlimit="10" stroke-width="3"/>
  </g>
</svg>
