<svg id="Phone_Holder" data-name="Phone Holder" xmlns="http://www.w3.org/2000/svg" width="18.94" height="18.94" viewBox="0 0 18.94 18.94">
  <path id="Path_19022" data-name="Path 19022" d="M17.756,7.5h-.395V5.129a1.184,1.184,0,0,0-1.184-1.184H10.654A1.184,1.184,0,0,0,9.47,5.129V7.5H9.075A1.184,1.184,0,0,0,7.892,8.681V9.47H5.919a.789.789,0,0,1-.789-.789V4.735A1.184,1.184,0,0,0,6.313,3.551V3.117A1.973,1.973,0,0,0,7.892,1.184V.395A.4.4,0,0,0,7.5,0H.395A.4.4,0,0,0,0,.395v.789A1.973,1.973,0,0,0,1.579,3.117v.434A1.184,1.184,0,0,0,2.762,4.735v4.34a2.762,2.762,0,0,0,2.762,2.762H7.892v.789A1.184,1.184,0,0,0,9.075,13.81H9.47v2.367a1.184,1.184,0,0,0,.789,1.113v.466a1.184,1.184,0,0,0,1.184,1.184h3.946a1.184,1.184,0,0,0,1.184-1.184V17.29a1.184,1.184,0,0,0,.789-1.113V13.81h.395a1.184,1.184,0,0,0,1.184-1.184V8.681A1.184,1.184,0,0,0,17.756,7.5Zm-7.5-.395h6.313v7.1H10.259Zm0-1.973a.4.4,0,0,1,.395-.395h5.524a.4.4,0,0,1,.395.395V6.313H10.259ZM.789,1.184V.789H7.1v.395A1.184,1.184,0,0,1,6.226,2.32a1.184,1.184,0,0,0-1.1-.742H2.762a1.184,1.184,0,0,0-1.1.742A1.184,1.184,0,0,1,.789,1.184ZM2.367,3.551V2.762a.4.4,0,0,1,.395-.395H5.129a.4.4,0,0,1,.395.395v.789a.4.4,0,0,1-.395.395H2.762A.4.4,0,0,1,2.367,3.551Zm3.157,7.5A1.973,1.973,0,0,1,3.551,9.075V4.735H4.34V8.681a1.578,1.578,0,0,0,1.578,1.578H7.892v.789Zm3.551,1.973a.4.4,0,0,1-.395-.395V8.681a.4.4,0,0,1,.395-.395H9.47v4.735Zm6.708,4.735a.4.4,0,0,1-.395.395H11.443a.4.4,0,0,1-.395-.395v-.395h4.735Zm.789-1.578a.4.4,0,0,1-.395.395H10.654a.4.4,0,0,1-.395-.395V14.994h6.313Zm1.578-3.551a.4.4,0,0,1-.395.395h-.395V8.286h.395a.4.4,0,0,1,.395.395Z" fill="#e41022"/>
  <path id="Path_19023" data-name="Path 19023" d="M33.395,39.789A.395.395,0,1,0,33,39.395.395.395,0,0,0,33.395,39.789Z" transform="translate(-19.979 -23.612)" fill="#e41022"/>
  <path id="Path_19024" data-name="Path 19024" d="M32.973,13H31.395a.395.395,0,0,0,0,.789h1.578a.395.395,0,1,0,0-.789Z" transform="translate(-18.768 -7.871)" fill="#e41022"/>
</svg>
