<svg xmlns="http://www.w3.org/2000/svg" width="25.624" height="25.624" viewBox="0 0 25.624 25.624">
  <path id="Path_20082" data-name="Path 20082" d="M3,3H5.625L6.15,5.625m2.1,10.5H21.375l5.25-10.5H6.15m2.1,10.5-2.1-10.5m2.1,10.5L5.24,19.134a1.312,1.312,0,0,0,.928,2.24H21.375m0,0A2.625,2.625,0,1,0,24,24,2.625,2.625,0,0,0,21.375,21.375ZM10.875,24A2.625,2.625,0,1,1,8.25,21.375,2.625,2.625,0,0,1,10.875,24Z" transform="translate(-2 -2)" fill="none" stroke="#fff" stroke-linecap="round" stroke-linejoin="round" stroke-width="2"/>
</svg>
