<svg xmlns="http://www.w3.org/2000/svg" width="16.875" height="20.393" viewBox="0 0 16.875 20.393">
  <g id="Group_8429" data-name="Group 8429" transform="translate(-0.864 -1.315)">
    <g id="Group_9693" data-name="Group 9693" transform="translate(1.87 2.314)">
      <path id="Path_6195" data-name="Path 6195" d="M1509.656,6030.842h-9.919a2.47,2.47,0,0,1-2.438-2.867l1.441-9.454a1.482,1.482,0,0,1,1.462-1.242h8.989a1.482,1.482,0,0,1,1.462,1.242l1.441,9.454A2.467,2.467,0,0,1,1509.656,6030.842Z" transform="translate(-1497.266 -6012.45)" fill="none" stroke="#1f3150" stroke-linecap="round" stroke-linejoin="round" stroke-miterlimit="10" stroke-width="2"/>
      <path id="Path_6196" data-name="Path 6196" d="M1506.01,6012.659v-1.753a3.076,3.076,0,0,1,3.076-3.077h0a3.077,3.077,0,0,1,3.077,3.077v1.753" transform="translate(-1501.542 -6007.829)" fill="none" stroke="#1f3150" stroke-linecap="round" stroke-linejoin="round" stroke-miterlimit="10" stroke-width="2"/>
    </g>
  </g>
</svg>
