<svg xmlns="http://www.w3.org/2000/svg" width="18" height="18" viewBox="0 0 18 18">
  <path id="Union_4" data-name="Union 4" d="M10.511,16a.751.751,0,0,1-.686-.8V10.627a.751.751,0,0,1,.686-.8h4.8a.751.751,0,0,1,.686.8V15.4a.562.562,0,0,1-.514.6ZM.686,16A.75.75,0,0,1,0,15.2V10.627a.751.751,0,0,1,.686-.8h4.8a.751.751,0,0,1,.686.8V15.4a.562.562,0,0,1-.514.6Zm9.825-9.826a.75.75,0,0,1-.686-.8V.8a.75.75,0,0,1,.686-.8h4.8A.75.75,0,0,1,16,.8V5.573a.562.562,0,0,1-.514.6Zm-9.825,0A.75.75,0,0,1,0,5.373V.8A.75.75,0,0,1,.686,0h4.8a.75.75,0,0,1,.686.8V5.573a.561.561,0,0,1-.514.6Z" transform="translate(1 1)" fill="none" stroke="#e41022" stroke-linecap="round" stroke-linejoin="round" stroke-miterlimit="10" stroke-width="2"/>
</svg>
