<svg xmlns="http://www.w3.org/2000/svg" width="45" height="45" viewBox="0 0 45 45">
  <g id="Group_12862" data-name="Group 12862" transform="translate(-36 -221)">
    <rect id="Rectangle_3409" data-name="Rectangle 3409" width="45" height="45" transform="translate(36 221)" fill="#fff" opacity="0"/>
    <g id="Group_8400" data-name="Group 8400" transform="translate(-693.81 -6526.307)">
      <path id="Path_6293" data-name="Path 6293" d="M740.72,6762.529a2,2,0,0,1,2-2h14.827a2,2,0,0,1,2,2v9.974" transform="translate(0 0)" fill="none" stroke="#1f3150" stroke-linecap="round" stroke-linejoin="round" stroke-miterlimit="10" stroke-width="2"/>
      <path id="Path_6294" data-name="Path 6294" d="M762.133,6781.793H743.387a2.666,2.666,0,0,1-2.667-2.667v-10.467" transform="translate(0 -2.709)" fill="none" stroke="#1f3150" stroke-linecap="round" stroke-linejoin="round" stroke-miterlimit="10" stroke-width="2"/>
      <path id="Path_6295" data-name="Path 6295" d="M772.833,6764.51h1.3v13.313a2.589,2.589,0,0,1-2.587,2.587h0a2.589,2.589,0,0,1-2.587-2.587V6764.51" transform="translate(-9.413 -1.327)" fill="none" stroke="#1f3150" stroke-linecap="round" stroke-linejoin="round" stroke-miterlimit="10" stroke-width="2"/>
      <g id="Group_8399" data-name="Group 8399" transform="translate(745.727 6765.423)">
        <line id="Line_2159" data-name="Line 2159" x2="8.64" transform="translate(0 8.767)" fill="none" stroke="#1f3150" stroke-linecap="round" stroke-linejoin="round" stroke-miterlimit="10" stroke-width="2"/>
        <line id="Line_2160" data-name="Line 2160" x2="8.633" transform="translate(0.087 4.38)" fill="none" stroke="#1f3150" stroke-linecap="round" stroke-linejoin="round" stroke-miterlimit="10" stroke-width="2"/>
        <line id="Line_2161" data-name="Line 2161" x2="8.64" transform="translate(0.047)" fill="none" stroke="#1f3150" stroke-linecap="round" stroke-linejoin="round" stroke-miterlimit="10" stroke-width="2"/>
      </g>
    </g>
  </g>
</svg>
