<svg xmlns="http://www.w3.org/2000/svg" width="45" height="45" viewBox="0 0 45 45">
  <g id="Group_12864" data-name="Group 12864" transform="translate(-36 -221)">
    <rect id="Rectangle_3409" data-name="Rectangle 3409" width="45" height="45" transform="translate(36 221)" fill="#fff" opacity="0"/>
    <g id="Group_12866" data-name="Group 12866" transform="translate(-1068.59 -2567.74)">
      <path id="Path_5505" data-name="Path 5505" d="M1138.74,2813.834h-22.39a.76.76,0,0,1-.76-.76v-4.285a.76.76,0,0,1,.76-.76h22.39a.76.76,0,0,1,.76.76v4.285A.76.76,0,0,1,1138.74,2813.834Z" transform="translate(0 -2.859)" fill="none" stroke="#1f3150" stroke-linecap="round" stroke-linejoin="round" stroke-miterlimit="10" stroke-width="2"/>
      <path id="Path_5506" data-name="Path 5506" d="M1138.746,2820.73v5.829a2.659,2.659,0,0,1-2.656,2.656h-14.344a2.659,2.659,0,0,1-2.656-2.656v-8.989" transform="translate(-1.373 -6.601)" fill="none" stroke="#1f3150" stroke-linecap="round" stroke-linejoin="round" stroke-miterlimit="10" stroke-width="2"/>
      <path id="Path_5507" data-name="Path 5507" d="M1135.26,2804.046a3.306,3.306,0,0,1,3.306-3.306h0a3.306,3.306,0,0,1,3.306,3.306" transform="translate(-7.715)" fill="none" stroke="#1f3150" stroke-linecap="round" stroke-linejoin="round" stroke-miterlimit="10" stroke-width="2"/>
      <path id="Path_5508" data-name="Path 5508" d="M1135.26,2836.74" transform="translate(-7.715 -14.12)" fill="none" stroke="#1f3150" stroke-linecap="round" stroke-linejoin="round" stroke-miterlimit="10" stroke-width="2"/>
      <line id="Line_1696" data-name="Line 1696" y2="11.244" transform="translate(1127.545 2811.376)" fill="none" stroke="#1f3150" stroke-linecap="round" stroke-linejoin="round" stroke-miterlimit="10" stroke-width="2"/>
      <path id="Path_5509" data-name="Path 5509" d="M1124.37,2804.046a3.306,3.306,0,0,1,3.306-3.306h0a3.306,3.306,0,0,1,3.306,3.306" transform="translate(-3.444)" fill="none" stroke="#1f3150" stroke-linecap="round" stroke-linejoin="round" stroke-miterlimit="10" stroke-width="2"/>
    </g>
  </g>
</svg>
