<svg id="Car_Generator" data-name="Car Generator" xmlns="http://www.w3.org/2000/svg" width="19.168" height="17.571" viewBox="0 0 19.168 17.571">
  <path id="Path_18966" data-name="Path 18966" d="M17.97,5.993H15.934a2,2,0,0,0-1.557-1.557V3.2a1.2,1.2,0,0,0-1.2-1.2h-.8a.4.4,0,0,0-.4.4v.4H8.785V2.4a.4.4,0,0,0-.4-.4h-.8a1.2,1.2,0,0,0-1.2,1.2V4.436a2,2,0,0,0-1.6,1.957v.8h-2a.4.4,0,0,0-.4.4v.343l-1.086-.9A.8.8,0,0,0,0,7.643v6.286a.8.8,0,0,0,.8.8c.371,0,.451-.136,1.6-1.09v.343a.4.4,0,0,0,.4.4h2v.8a2,2,0,0,0,1.418,1.9c.22.272.18.323.18,2.093a.4.4,0,0,0,.4.4h2.4a.4.4,0,0,0,.4-.4v-2h1.6v2a.4.4,0,0,0,.4.4h2.4a.4.4,0,0,0,.4-.4c0-1.569-.072-1.781.18-2.093a2,2,0,0,0,1.378-1.5H17.97a1.2,1.2,0,0,0,1.2-1.2V7.191A1.2,1.2,0,0,0,17.97,5.993Zm.4,3.195h-.8v-.8h.8Zm-3.195,5.591h-2a.4.4,0,0,1,0-.8h2Zm0-3.594h-2a.4.4,0,0,1,0-.8h2Zm0-3.594h-2a.4.4,0,0,1,0-.8h2ZM12.779,2.8h.4a.4.4,0,0,1,.4.4V4.4h-.8Zm-.8.8v.8H8.785V3.6ZM7.188,3.2a.4.4,0,0,1,.4-.4h.4V4.4h-.8Zm-1.6,7.188h2a.4.4,0,0,1,0,.8h-2Zm0,3.594h2a.4.4,0,0,1,0,.8h-2Zm2-7.188a.4.4,0,0,1,0,.8h-2v-.8ZM.8,13.924V7.647l1.6,1.33v3.618Zm2.4-.343V7.99h1.6v5.591Zm2.468,2H7.587a1.2,1.2,0,1,0,0-2.4h-2v-1.2h2a1.2,1.2,0,1,0,0-2.4h-2v-1.2h2a1.2,1.2,0,1,0,0-2.4H5.663a1.2,1.2,0,0,1,1.126-.8H9.983V16.376H6.789A1.2,1.2,0,0,1,5.663,15.577Zm3.123,3.195h-1.6a6.149,6.149,0,0,0-.056-1.6H8.785Zm4.792,0h-1.6v-1.6h1.653A7.551,7.551,0,0,0,13.577,18.772Zm.4-2.4H10.782V5.195h3.195a1.2,1.2,0,0,1,1.126.8H13.178a1.2,1.2,0,0,0,0,2.4h2v1.2h-2a1.2,1.2,0,0,0,0,2.4h2v1.2h-2a1.2,1.2,0,0,0,0,2.4H15.1a1.2,1.2,0,0,1-1.126.8Zm3.993-1.6h-2V6.792h2a.4.4,0,0,1,.4.4v.4h-1.2a.4.4,0,0,0-.4.4v1.6a.4.4,0,0,0,.4.4h1.2v1.6h-1.2a.4.4,0,0,0-.4.4v1.6a.4.4,0,0,0,.4.4h1.2v.4A.4.4,0,0,1,17.97,14.779Zm.4-1.6h-.8v-.8h.8Z" transform="translate(0 -2)" fill="#e41022"/>
</svg>
