<svg id="Front_Bumper" data-name="Front Bumper" xmlns="http://www.w3.org/2000/svg" width="18.928" height="11.048" viewBox="0 0 18.928 11.048">
  <path id="Path_18992" data-name="Path 18992" d="M7.089,25.175a1.577,1.577,0,1,0-.922,1.845,1.183,1.183,0,1,0,.922-1.845Zm-2.31.394a.789.789,0,1,1,1.577-.079,1.183,1.183,0,0,0-.394.753.788.788,0,0,1-1.183-.674Zm2.365,1.183a.394.394,0,1,1,.394-.394A.394.394,0,0,1,7.144,26.752Z" transform="translate(-2.408 -18.463)" fill="#e41022"/>
  <path id="Path_18993" data-name="Path 18993" d="M34.236,25.175a1.183,1.183,0,1,0,.922,1.845,1.577,1.577,0,1,0-.922-1.845Zm-.055,1.577a.394.394,0,1,1,.394-.394A.394.394,0,0,1,34.181,26.752Zm2.365-1.183a.788.788,0,0,1-1.183.674,1.155,1.155,0,0,0-.394-.753.789.789,0,1,1,1.577.079Z" transform="translate(-19.983 -18.463)" fill="#e41022"/>
  <path id="Path_18994" data-name="Path 18994" d="M22.125,24H17.394a.394.394,0,0,0-.394.394v1.971a1.577,1.577,0,0,0,1.577,1.577h2.365a1.577,1.577,0,0,0,1.577-1.577V24.394A.394.394,0,0,0,22.125,24Zm-.394.788v.788H17.788v-.788Zm-.788,2.365H18.577a.788.788,0,0,1-.788-.788h3.942A.788.788,0,0,1,20.942,27.154Z" transform="translate(-10.293 -18.471)" fill="#e41022"/>
  <path id="Path_18995" data-name="Path 18995" d="M18.914,12.633a21.113,21.113,0,0,0-2.046-2.507c-.189-.209.922-.142-14.511-.142-.256,0-.177,0-2.275,2.507-.13.158-.091-.035-.091,4.195a4.336,4.336,0,0,0,4.336,4.336h10.25a4.336,4.336,0,0,0,4.336-4.336ZM2.542,10.773H16.363L17.976,12.7a4.944,4.944,0,0,1-3.264,1.222H4.194A4.944,4.944,0,0,1,.93,12.7Zm15.584,5.913a3.548,3.548,0,0,1-3.548,3.548H4.328A3.548,3.548,0,0,1,.78,16.686V13.6a5.728,5.728,0,0,0,3.414,1.116H14.712A5.728,5.728,0,0,0,18.126,13.6Z" transform="translate(0.014 -9.974)" fill="#e41022"/>
</svg>
