<svg xmlns="http://www.w3.org/2000/svg" width="18.917" height="18.917" viewBox="0 0 18.917 18.917">
  <path id="Path_19859" data-name="Path 19859" d="M344.034,319.68c-2.354,0-2.693.012-3.666.055a6.91,6.91,0,0,0-2.3.437,4.83,4.83,0,0,0-2.767,2.767,6.877,6.877,0,0,0-.437,2.3c-.043,1.011-.055,1.331-.055,3.9s.012,2.89.055,3.9a6.909,6.909,0,0,0,.437,2.3,4.83,4.83,0,0,0,2.767,2.767,6.876,6.876,0,0,0,2.3.437c1.011.043,1.331.055,3.9.055s2.89-.012,3.9-.055a6.876,6.876,0,0,0,2.3-.437,4.83,4.83,0,0,0,2.767-2.767,6.876,6.876,0,0,0,.438-2.3c.043-.98.055-1.312.055-3.666V328.9c0-2.354-.012-2.693-.055-3.666a6.909,6.909,0,0,0-.437-2.3,4.83,4.83,0,0,0-2.767-2.767,6.876,6.876,0,0,0-2.3-.437c-.98-.043-1.312-.055-3.666-.055h-.468Zm6.421,4.412a1.134,1.134,0,1,1-1.134-1.134,1.135,1.135,0,0,1,1.134,1.134Zm-6.187,8.208a3.155,3.155,0,1,1,3.155-3.155,3.153,3.153,0,0,1-3.155,3.155Zm0-8.017a4.862,4.862,0,1,1-4.862,4.862,4.86,4.86,0,0,1,4.862-4.862Zm0-2.9c2.526,0,2.828.012,3.827.055a5.242,5.242,0,0,1,1.756.327,3.131,3.131,0,0,1,1.8,1.8,5.241,5.241,0,0,1,.327,1.756c.043,1,.055,1.3.055,3.827s-.012,2.828-.055,3.827a5.24,5.24,0,0,1-.327,1.756,3.131,3.131,0,0,1-1.8,1.8,5.242,5.242,0,0,1-1.756.327c-1,.043-1.3.055-3.827.055s-2.828-.012-3.827-.055a5.241,5.241,0,0,1-1.756-.327,3.131,3.131,0,0,1-1.8-1.8,5.241,5.241,0,0,1-.327-1.756c-.043-1-.055-1.3-.055-3.827s.012-2.828.055-3.827a5.242,5.242,0,0,1,.327-1.756,3.131,3.131,0,0,1,1.8-1.8,5.241,5.241,0,0,1,1.756-.327C341.44,321.393,341.742,321.387,344.269,321.387Z" transform="translate(-334.81 -319.68)" fill="#fff" fill-rule="evenodd"/>
</svg>
