<svg id="Rear_Seats" data-name="Rear Seats" xmlns="http://www.w3.org/2000/svg" width="19.042" height="16.654" viewBox="0 0 19.042 16.654">
  <path id="Path_19048" data-name="Path 19048" d="M18.645,18.88c-.4,0-.294.036-.258-.107.377-1.519.643-2.015.179-2.61a1.162,1.162,0,0,0-.476-.357,1.984,1.984,0,0,0,.484-1.377l-.258-5.951a1.984,1.984,0,0,0-1.984-1.9h-.861V5.789a.793.793,0,0,0,.69-.94l-.238-1.19a.793.793,0,0,0-.793-.639H12.623a.793.793,0,0,0-.793.639c-.238,1.19-.377,1.476-.075,1.849a.793.793,0,0,0,.543.282v.793H6.744V5.789a.793.793,0,0,0,.69-.94L7.2,3.658A.793.793,0,0,0,6.4,3.02H3.9a.793.793,0,0,0-.793.639c-.23,1.143-.4,1.464-.075,1.849a.793.793,0,0,0,.543.282v.793H2.709a1.984,1.984,0,0,0-1.984,1.9L.468,14.429a1.984,1.984,0,0,0,.484,1.377,1.19,1.19,0,0,0-.694,1.381c.46,1.833.4,1.559.432,1.694H.4a.4.4,0,0,0,0,.793H18.645a.4.4,0,0,0,0-.793ZM11.5,15.706V7.376h4.364v8.331Zm-8.331,0V7.376H7.537v8.331ZM8.331,9.756h2.38v5.951H8.331Zm9.192-1.242c.282,6.542.4,6.347-.071,6.823a1.154,1.154,0,0,1-.789.369V7.427a1.19,1.19,0,0,1,.861,1.087Zm-4.9-4.709h2.523L15.384,5h-3Zm.468,1.984h1.587v.793H13.091Zm-2.38,1.587V8.962H8.331V7.376ZM3.9,3.805H6.419L6.657,5h-3Zm.468,1.984H5.951v.793H4.364ZM1.519,8.514A1.19,1.19,0,0,1,2.38,7.427v8.279a1.19,1.19,0,0,1-1.119-1.234Zm.29,10.366a.4.4,0,0,1-.4-.3l-.4-1.587a.4.4,0,0,1,.4-.492c17.546,0,16.356-.071,16.531.151s.1.218-.325,1.928a.4.4,0,0,1-.4.3Z" transform="translate(0 -3.02)" fill="#e41022"/>
</svg>
