<svg xmlns="http://www.w3.org/2000/svg" width="18.929" height="18.942" viewBox="0 0 18.929 18.942">
  <path id="Path_19850" data-name="Path 19850" d="M339.083,412.052h-3.907V399.426h3.907v12.626Zm-1.972-14.283h0a2.329,2.329,0,1,1,2.311-2.329,2.319,2.319,0,0,1-2.311,2.329Zm16.619,14.283h-3.888v-6.63c0-1.818-.69-2.834-2.126-2.834-1.565,0-2.379,1.054-2.379,2.834v6.63H341.59V399.426h3.746v1.7a4.4,4.4,0,0,1,3.8-2.089c2.674,0,4.591,1.633,4.591,5.016S353.729,412.052,353.729,412.052Z" transform="translate(-334.8 -393.11)" fill="#fff" fill-rule="evenodd"/>
</svg>
