<svg xmlns="http://www.w3.org/2000/svg" width="18.013" height="18.009" viewBox="0 0 18.013 18.009">
  <g id="Group_11483" data-name="Group 11483" transform="translate(-927.99 -175.26)">
    <g id="Group_11481" data-name="Group 11481" transform="translate(929.577 182.305)">
      <path id="Path_19784" data-name="Path 19784" d="M945.185,189.85l-7.455,5.084-7.419-5.084" transform="translate(-930.31 -189.85)" fill="none" stroke="#fff" stroke-linecap="round" stroke-linejoin="round" stroke-miterlimit="10" stroke-width="2"/>
      <line id="Line_2358" data-name="Line 2358" y1="2.611" x2="3.808" transform="translate(0 6.877)" fill="none" stroke="#fff" stroke-linecap="round" stroke-linejoin="round" stroke-miterlimit="10" stroke-width="2"/>
      <line id="Line_2359" data-name="Line 2359" x1="3.932" y1="2.682" transform="translate(10.942 6.806)" fill="none" stroke="#fff" stroke-linecap="round" stroke-linejoin="round" stroke-miterlimit="10" stroke-width="2"/>
    </g>
    <g id="Group_11482" data-name="Group 11482" transform="translate(928.99 176.26)">
      <path id="Path_19785" data-name="Path 19785" d="M944.621,181.558,937,176.26l-7.624,5.3a.887.887,0,0,0-.383.729v8.2a1.779,1.779,0,0,0,1.779,1.779h12.455A1.779,1.779,0,0,0,945,190.49v-8.2A.893.893,0,0,0,944.621,181.558Z" transform="translate(-928.99 -176.26)" fill="none" stroke="#fff" stroke-linecap="round" stroke-linejoin="round" stroke-miterlimit="10" stroke-width="2"/>
    </g>
  </g>
</svg>
