<svg xmlns="http://www.w3.org/2000/svg" width="18.982" height="18" viewBox="0 0 18.982 18">
  <g id="Group_12193" data-name="Group 12193" transform="translate(0 -0.874)">
    <g id="car-oil" transform="translate(0 0.874)">
      <g id="Group_10769" data-name="Group 10769" transform="translate(0 0)">
        <g id="Group_10768" data-name="Group 10768">
          <path id="Path_19131" data-name="Path 19131" d="M17.446,25.6a.557.557,0,0,0-.472-.474l-5.637-.806-.6-2.248a1.664,1.664,0,0,0-.777-1.018L7.953,19.886l.556-.967,1.444.838a.558.558,0,0,0,.556-.967L6.658,16.555a.554.554,0,0,0-.759.2.56.56,0,0,0,.2.763l1.444.838-.556.967L4.661,17.976,3.412,16.561a1.662,1.662,0,0,0-2.692.274l-.5.863a1.68,1.68,0,0,0,.2,1.95l1.535,1.739L.488,23.94a1.682,1.682,0,0,0,.61,2.289l6.244,3.622a1.663,1.663,0,0,0,1.523.075l8.259-3.741A.559.559,0,0,0,17.446,25.6ZM1.252,18.906a.56.56,0,0,1-.066-.65l.5-.863a.554.554,0,0,1,.9-.091l1.043,1.182L2.542,20.367Zm7.155,10a.555.555,0,0,1-.508-.025L1.655,25.262a.561.561,0,0,1-.2-.763l.278-.484,7.665,4.447ZM10.643,27.9,2.285,23.047l2.224-3.87,4.9,2.841a.554.554,0,0,1,.259.339l.695,2.6a.557.557,0,0,0,.459.408l4.1.587Z" transform="translate(0 -15.996)" fill="#e41022"/>
        </g>
      </g>
      <g id="Group_10771" data-name="Group 10771" transform="translate(14.514 11.297)">
        <g id="Group_10770" data-name="Group 10770">
          <path id="Path_19132" data-name="Path 19132" d="M396.205,319.42l-1.464-3.093a.559.559,0,0,0-1.01,0l-1.464,3.093a2.234,2.234,0,1,0,3.938,0Zm-1.969,2.173a1.118,1.118,0,0,1-1.117-1.117,1.1,1.1,0,0,1,.136-.535l.015-.029.966-2.04.966,2.04.015.029a1.1,1.1,0,0,1,.136.535A1.118,1.118,0,0,1,394.236,321.594Z" transform="translate(-392.002 -316.008)" fill="#e41022"/>
        </g>
      </g>
    </g>
  </g>
</svg>
