<svg xmlns="http://www.w3.org/2000/svg" width="45" height="45" viewBox="0 0 45 45">
  <g id="Wishlist" transform="translate(40.703 2)">
    <g id="Group_12295" data-name="Group 12295" transform="translate(-40.704 -2.477)">
      <rect id="Rectangle_2650" data-name="Rectangle 2650" width="45" height="45" transform="translate(0 0.477)" fill="none"/>
      <path id="Path_20232" data-name="Path 20232" d="M3,3H4.979l.4,1.979M6.958,12.9h9.9l3.958-7.916H5.375M6.958,12.9,5.375,4.979M6.958,12.9,4.689,15.164a.989.989,0,0,0,.7,1.689H16.853m0,0a1.979,1.979,0,1,0,1.979,1.979A1.979,1.979,0,0,0,16.853,16.853ZM8.937,18.832a1.979,1.979,0,1,1-1.979-1.979A1.979,1.979,0,0,1,8.937,18.832Z" transform="translate(10.5 10.977)" fill="none" stroke="#1f3150" stroke-linecap="round" stroke-linejoin="round" stroke-width="2"/>
    </g>
  </g>
</svg>
