<svg xmlns="http://www.w3.org/2000/svg" width="26.509" height="26.516" viewBox="0 0 26.509 26.516">
  <g id="Group_9734" data-name="Group 9734" transform="translate(0 0)">
    <path id="Path_5770" data-name="Path 5770" d="M578.086,4927.861l-2.048-2.047a3.006,3.006,0,0,0-4.258,0l-1.1,1.106a3.762,3.762,0,0,1-5.326,0l-4.39-4.392a3.76,3.76,0,0,1,0-5.325l1.1-1.1a3.016,3.016,0,0,0,0-4.267l-2.048-2.047a3.005,3.005,0,0,0-4.258,0h0a11.285,11.285,0,0,0,0,15.956l6.372,6.372a11.283,11.283,0,0,0,15.955,0h0A3.011,3.011,0,0,0,578.086,4927.861Z" transform="translate(-552.455 -4908.9)" fill="#e41022"/>
  </g>
</svg>
