<svg id="Tire" xmlns="http://www.w3.org/2000/svg" width="18.728" height="18.728" viewBox="0 0 18.728 18.728">
  <path id="Path_19086" data-name="Path 19086" d="M19.892,11.453A6.633,6.633,0,1,0,8.652,18.02a6.719,6.719,0,0,0,4.978,2.247,6.633,6.633,0,0,0,6.262-8.814ZM18.261,17.2c-2.961-2.579-2.68-2.263-2.591-2.419l3.3,1.229a5.8,5.8,0,0,1-.714,1.19Zm-9.976-1.19c3.671-1.369,3.27-1.276,3.371-1.124L9,17.2a5.8,5.8,0,0,1-.714-1.19Zm-.293-3.933.734.261a5.072,5.072,0,0,0,.02,2.657l-.73.269a5.751,5.751,0,0,1-.023-3.188Zm.948-1.951c3.008,2.532,2.731,2.216,2.63,2.376l-3.328-1.17a5.825,5.825,0,0,1,.706-1.178Zm3.859,1.3a2.341,2.341,0,0,0-.655.39l-1.506-1.268A4.292,4.292,0,0,1,12.46,9.51ZM9.479,14.7a4.292,4.292,0,0,1,0-2.122l1.857.659a2.146,2.146,0,0,0,0,.78Zm.64,2.571a5.127,5.127,0,0,0,2.208,1.256l-.137.78A5.852,5.852,0,0,1,9.53,17.8Zm2.341.484a4.292,4.292,0,0,1-1.771-1l1.487-1.3a2.341,2.341,0,0,0,.624.355Zm-.39-4.124a1.561,1.561,0,1,1,1.561,1.561A1.561,1.561,0,0,1,12.07,13.634ZM14.8,9.51a4.292,4.292,0,0,1,1.81,1.05l-1.506,1.268a2.341,2.341,0,0,0-.655-.39Zm4.206,1.838c-3.691,1.307-3.3,1.225-3.39,1.069l2.7-2.267a5.825,5.825,0,0,1,.706,1.2ZM17.77,14.731l-1.838-.706a2.146,2.146,0,0,0,0-.78l1.857-.659a4.342,4.342,0,0,1-.008,2.146Zm-2.7.734,1.5,1.291a4.292,4.292,0,0,1-1.771,1l-.351-1.951a2.341,2.341,0,0,0,.636-.343Zm-.133,3.067a5.127,5.127,0,0,0,2.208-1.256l.589.511a5.852,5.852,0,0,1-2.661,1.51ZM18.5,15.019a5.072,5.072,0,0,0,0-2.657l.765-.289a5.751,5.751,0,0,1-.023,3.188Zm-.7-5.462-.585.5a5.072,5.072,0,0,0-2.267-1.319l.137-.78a5.852,5.852,0,0,1,2.727,1.6Zm-3.48-1.728c-.694,3.855-.6,3.465-.694,3.465s0,.39-.694-3.465a5.173,5.173,0,0,1,1.389,0Zm-2.154.144.137.78a5.072,5.072,0,0,0-2.267,1.319l-.6-.5a5.852,5.852,0,0,1,2.727-1.6Zm.78,11.467c.679-3.855.585-3.465.679-3.465s0-.39.694,3.465a5.174,5.174,0,0,1-1.389,0Z" transform="translate(-4.266 -4.27)" fill="#e41022"/>
  <path id="Path_19087" data-name="Path 19087" d="M18.728,9.364a9.364,9.364,0,1,0-9.364,9.364,9.364,9.364,0,0,0,9.364-9.364Zm-3.121,4.947a.391.391,0,0,0-.741.25l.351,1.081A8.537,8.537,0,0,1,9.91,17.947l.234-.655a.391.391,0,0,0-.741-.25l-.316.905a8.583,8.583,0,0,1-5.372-2.126l.7-.234a.391.391,0,0,0-.25-.741l-1.081.371A8.537,8.537,0,0,1,.8,9.91c.7.234.679.234.78.234A.39.39,0,0,0,1.7,9.383l-.925-.3A8.548,8.548,0,0,1,2.954,3.664c.222.441.269.628.558.628a.39.39,0,0,0,.347-.566l-.324-.655A8.544,8.544,0,0,1,8.818.8L8.6,1.436a.391.391,0,1,0,.741.25l.3-.905a8.548,8.548,0,0,1,5.423,2.165l-.414.211A.39.39,0,0,0,15,3.851l.655-.324a8.544,8.544,0,0,1,2.29,5.291L17.311,8.6a.391.391,0,1,0-.25.741l.9.3a8.584,8.584,0,0,1-2.119,5.373Z" transform="translate(0 0)" fill="#e41022"/>
  <circle id="Ellipse_10994" data-name="Ellipse 10994" cx="0.622" cy="0.622" r="0.622" transform="translate(8.622 8.65)" fill="#e41022"/>
</svg>
